<?xml version="1.0" standalone="no"?>
<!DOCTYPE svg PUBLIC "-//W3C//DTD SVG 20010904//EN"
 "http://www.w3.org/TR/2001/REC-SVG-20010904/DTD/svg10.dtd">
<svg version="1.0" xmlns="http://www.w3.org/2000/svg"
 width="735.000000pt" height="752.000000pt" viewBox="0 0 735.000000 752.000000"
 preserveAspectRatio="xMidYMid meet">

<g transform="translate(0.000000,752.000000) scale(0.100000,-0.100000)"
fill="#000000" stroke="none">
<path d="M3480 7302 l-45 -7 5 -695 c9 -1292 6 -1999 -8 -2063 -8 -32 -16 -57
-18 -54 -3 3 -12 616 -20 1363 -8 748 -16 1364 -18 1370 -3 7 -21 8 -58 3
-570 -82 -737 -137 -965 -321 -267 -215 -424 -417 -550 -708 -98 -226 -151
-443 -173 -715 -13 -159 -59 -520 -106 -834 -27 -180 -41 -246 -60 -285 -14
-28 -74 -116 -134 -196 -176 -233 -474 -671 -626 -920 -216 -354 -628 -1344
-670 -1611 -6 -35 -2 -47 39 -107 78 -116 252 -322 394 -465 75 -75 137 -136
139 -134 2 1 24 117 49 256 78 431 178 782 325 1136 34 83 95 231 135 330 153
376 240 541 412 785 121 172 310 362 411 414 165 85 315 119 527 120 139 0
156 -2 223 -27 103 -37 171 -73 249 -131 99 -73 256 -229 326 -321 85 -113
242 -266 299 -293 69 -32 171 -31 237 3 60 30 205 171 291 284 35 46 100 119
144 163 150 151 273 236 418 290 79 30 90 31 233 32 211 0 365 -34 530 -117
137 -69 356 -307 509 -552 81 -130 192 -338 229 -432 19 -49 74 -182 122 -298
48 -115 103 -250 122 -300 20 -49 39 -94 43 -100 16 -21 133 -398 175 -565 24
-96 62 -281 85 -410 23 -129 45 -243 48 -253 14 -36 404 388 539 585 52 75 52
82 -7 282 -33 110 -227 615 -259 673 -6 10 -35 77 -65 148 -115 275 -204 454
-317 636 -153 246 -441 672 -574 849 -193 257 -194 259 -224 475 -89 637 -100
721 -111 863 -27 343 -94 588 -238 877 -106 213 -294 427 -537 612 -175 133
-323 186 -674 243 -287 47 -296 48 -298 46 -5 -4 -33 -2279 -33 -2649 0 -55
-3 -98 -6 -95 -3 4 -14 44 -24 91 -18 81 -18 127 -10 983 12 1183 14 1734 6
1742 -9 9 -379 12 -436 4z m-685 -2945 c205 -55 304 -105 417 -208 l43 -39
-95 45 c-122 56 -246 97 -385 127 -154 32 -390 32 -515 0 -47 -13 -98 -28
-115 -34 -52 -19 -335 -148 -449 -205 -60 -29 -111 -52 -113 -50 -5 5 111 91
191 142 164 103 440 220 577 244 30 6 122 8 204 6 120 -3 168 -8 240 -28z
m2219 19 c179 -35 428 -147 628 -283 104 -71 146 -103 135 -103 -2 0 -84 38
-181 85 -97 47 -179 85 -181 85 -2 0 -41 18 -87 39 -176 82 -289 106 -493 105
-229 -2 -448 -55 -657 -160 -38 -19 -68 -31 -68 -26 0 15 176 141 230 165 79
35 212 76 299 91 102 19 282 19 375 2z"/>
<path d="M2360 3923 c-121 -21 -308 -101 -414 -177 -89 -64 -240 -224 -338
-356 -193 -263 -260 -397 -474 -940 -25 -63 -52 -127 -59 -141 -18 -33 -154
-440 -199 -594 -19 -66 -41 -140 -50 -165 -50 -148 -94 -388 -71 -383 6 1 54
20 108 43 224 92 561 171 797 185 128 7 430 -12 446 -28 7 -7 33 -79 59 -162
26 -82 63 -201 83 -262 l36 -113 46 0 c26 0 65 9 88 20 22 11 53 20 67 20 32
0 83 -26 107 -54 16 -19 17 -19 18 -3 0 27 -26 73 -56 96 -32 25 -109 28 -141
6 -12 -8 -24 -12 -26 -8 -2 5 -21 69 -42 143 -20 74 -44 155 -52 180 -8 25
-25 83 -38 130 -12 47 -57 204 -100 350 -129 440 -144 494 -141 497 3 3 53
-117 136 -327 32 -80 99 -246 149 -370 50 -124 115 -285 144 -357 28 -73 55
-133 59 -133 5 0 225 219 490 486 l483 486 2 82 c2 105 28 166 86 204 35 23
51 27 118 27 89 0 113 -13 164 -84 28 -39 30 -50 31 -132 l2 -90 483 -489
c265 -270 486 -490 491 -490 9 0 21 27 98 220 130 329 372 926 380 940 16 26
11 0 -19 -99 -29 -95 -71 -240 -157 -541 -24 -85 -53 -182 -63 -215 -11 -33
-27 -89 -36 -125 -9 -36 -32 -116 -51 -178 -19 -62 -34 -115 -34 -118 0 -2
-13 2 -30 11 -70 36 -142 10 -180 -66 -26 -51 -25 -70 3 -39 33 38 73 60 106
60 31 0 81 -18 92 -33 3 -4 30 -7 60 -5 53 3 54 3 67 43 7 22 45 144 85 270
l73 230 74 8 c123 13 448 12 535 -2 111 -17 296 -57 380 -82 96 -28 292 -98
337 -120 20 -11 39 -15 42 -11 6 10 -28 192 -54 282 -12 41 -37 127 -57 190
-19 63 -45 151 -58 196 -34 115 -128 388 -158 460 -14 33 -44 108 -66 165
-195 508 -322 748 -537 1015 -169 210 -335 335 -534 404 -64 22 -192 52 -197
46 -2 -1 22 -29 53 -62 99 -104 206 -259 253 -365 17 -38 19 -52 10 -83 -11
-39 -15 -42 -184 -117 -11 -5 -87 -33 -170 -63 -296 -106 -383 -122 -641 -113
-102 3 -188 9 -193 12 -8 4 9 108 38 230 5 22 8 42 5 44 -2 3 -20 -13 -40 -35
-139 -151 -185 -192 -259 -225 -40 -18 -69 -23 -145 -23 -88 -1 -101 2 -160
31 -68 33 -127 84 -223 192 -31 35 -59 62 -62 59 -3 -3 7 -64 22 -136 15 -72
25 -134 22 -137 -14 -13 -375 -18 -459 -6 -158 23 -578 168 -692 238 -77 47
-58 119 89 333 52 76 69 96 152 183 44 46 43 49 -9 40z m-175 -828 c86 -75
184 -140 251 -164 171 -64 532 -67 760 -7 84 23 109 21 57 -4 -89 -42 -196
-82 -271 -101 -72 -19 -114 -23 -237 -22 -178 0 -245 11 -343 58 -86 41 -138
87 -244 218 -84 105 -109 146 -62 102 16 -15 56 -51 89 -80z m3102 91 c-11
-27 -169 -216 -216 -257 -108 -96 -228 -131 -451 -132 -145 -1 -181 4 -325 45
-73 21 -215 86 -215 99 0 4 28 -1 63 -12 165 -50 510 -63 686 -25 129 28 254
103 396 238 65 62 70 66 62 44z m-1473 -218 c43 -21 166 -101 163 -105 -2 -1
-48 11 -102 28 -167 49 -204 49 -380 -1 -101 -28 -105 -25 -34 23 66 44 126
73 169 81 46 8 143 -5 184 -26z m-16 -153 c54 -29 102 -64 87 -65 -5 0 -39 9
-75 20 -83 25 -147 25 -238 0 -89 -25 -93 -25 -62 1 87 71 203 89 288 44z
m-1633 -160 c22 -18 65 -49 95 -70 30 -21 67 -47 82 -58 26 -19 27 -19 95 1
157 48 378 65 536 41 145 -22 312 -86 312 -119 0 -16 -10 -22 -200 -112 -175
-83 -235 -145 -332 -342 -64 -130 -71 -152 -144 -436 -31 -120 -39 -140 -39
-99 0 34 27 240 41 309 28 147 109 344 180 438 81 107 154 161 278 208 l85 32
-54 16 c-203 60 -355 57 -652 -15 l-88 -21 -147 147 c-135 135 -152 163 -48
80z m2975 -85 c-78 -77 -146 -140 -150 -140 -5 0 -64 14 -132 30 -171 42 -329
57 -427 41 -73 -12 -179 -36 -211 -47 -9 -3 17 -17 60 -33 126 -47 209 -108
290 -216 103 -139 180 -376 210 -647 21 -195 14 -180 -72 157 -55 213 -187
466 -283 539 -33 25 -222 120 -317 160 -21 8 -38 22 -38 30 0 24 73 65 161 91
206 62 452 60 683 -5 l77 -21 72 52 c40 29 90 65 112 80 22 16 54 39 70 53 17
13 32 22 34 20 2 -2 -60 -67 -139 -144z"/>
<path d="M3568 1428 c-2 -227 -2 -423 0 -436 3 -22 6 -23 110 -20 l107 3 3
433 2 432 -110 0 -110 0 -2 -412z"/>
<path d="M3337 1671 l-87 -89 0 -306 0 -306 90 0 90 0 0 395 c0 217 -1 395 -3
395 -1 0 -42 -40 -90 -89z"/>
<path d="M3930 1360 l0 -391 88 3 87 3 0 305 0 305 -82 83 c-45 45 -85 82 -88
82 -3 0 -5 -176 -5 -390z"/>
<path d="M3003 1372 l-83 -87 0 -158 0 -158 88 3 87 3 3 243 c1 133 -1 242 -5
241 -5 0 -45 -39 -90 -87z"/>
<path d="M4260 1217 l0 -247 90 0 90 0 0 158 0 157 -90 90 -90 90 0 -248z"/>
<path d="M2670 883 c0 -5 6 -30 13 -58 l13 -50 967 -3 966 -2 11 42 c6 24 13
51 16 61 5 16 -47 17 -990 17 -548 0 -996 -3 -996 -7z"/>
<path d="M2740 702 c0 -4 69 -42 153 -85 83 -43 181 -94 215 -112 35 -19 152
-80 260 -136 109 -56 221 -115 250 -131 l53 -29 152 79 c84 44 177 93 207 109
30 17 147 78 260 138 264 139 293 155 305 166 5 6 -357 9 -923 9 -513 0 -932
-4 -932 -8z"/>
</g>
</svg>
